<svg xmlns="http://www.w3.org/2000/svg" viewBox="0 0 24 24" fill="none">
  <defs>
    <linearGradient id="face" x1="12" y1="2" x2="12" y2="22" gradientUnits="userSpaceOnUse">
      <stop offset="0%" stop-color="#ffffff"/>
      <stop offset="100%" stop-color="#fff3dc"/>
    </linearGradient>
    <linearGradient id="rim" x1="4" y1="4" x2="20" y2="20" gradientUnits="userSpaceOnUse">
      <stop offset="0%" stop-color="#fff8e8"/>
      <stop offset="100%" stop-color="#ffd978"/>
    </linearGradient>
  </defs>
  <circle cx="12" cy="12.4" r="9.6" fill="rgba(0,0,0,0.12)"/>
  <circle cx="12" cy="12" r="9.6" fill="url(#face)" stroke="url(#rim)" stroke-width="1.4"/>
  <circle cx="12" cy="12" r="6.8" stroke="#f5c96a" stroke-width="0.9" opacity="0.55"/>
  <path
    fill="#c96f12"
    d="M13.1 7.1h-2.4c-1.9 0-3.3 1.1-3.3 2.8 0 1.3.9 2.3 2.6 2.7l2.6.6c1.2.3 2 1.1 2 2.3 0 1.7-1.5 2.9-3.6 2.9H7.8v-1.6h2.7c1.3 0 2.2-.7 2.2-1.8 0-1-.7-1.6-2-1.9l-2.6-.6c-1.4-.35-2.2-1.2-2.2-2.5 0-1.7 1.4-2.8 3.3-2.8h2.4v1.6z"
  />
</svg>
