<?xml version="1.0" encoding="iso-8859-1"?>
<!-- Uploaded to: SVG Repo, www.svgrepo.com, Generator: SVG Repo Mixer Tools -->
<svg version="1.1" id="Layer_1" xmlns="http://www.w3.org/2000/svg" xmlns:xlink="http://www.w3.org/1999/xlink" 
	 viewBox="0 0 512 512" xml:space="preserve">
<g>
	<path style="fill:#7E8488;" d="M312.46,299.397v-28.222l118.533-33.866c0,107.244-118.533,118.533-118.533,118.533V299.397z"/>
	<path style="fill:#7E8488;" d="M199.571,299.397v56.444c0,0-118.533-11.289-118.533-118.533l118.533,33.866V299.397z"/>
</g>
<g>
	<path style="fill:#F270A8;" d="M335.037,197.796l0.564,1.468c-6.661,2.483-13.095,4.742-19.304,6.886l-28.448-46.623l2.032-1.242
		l45.155-45.155v84.667H335.037z"/>
	<path style="fill:#F270A8;" d="M222.148,158.286l2.032,1.242l-28.447,46.623c-6.209-2.145-12.644-4.402-19.304-6.886l0.564-1.468
		V113.13L222.148,158.286z"/>
</g>
<path style="fill:#00B4D7;" d="M287.849,159.527l28.448,46.623c-34.544,11.966-60.283,19.869-60.283,19.869
	s-25.739-7.902-60.283-19.869l28.448-46.623l31.834-52.042L287.849,159.527z"/>
<g>
	<path style="fill:#FFD311;" d="M487.437,124.418c0,0,107.245,287.866-231.422,287.866V226.018c0,0,25.739-7.902,60.283-19.869
		c6.208-2.145,12.644-4.402,19.304-6.886C395.996,177.815,471.068,147.335,487.437,124.418z M430.992,237.307L312.46,271.174v28.222
		v56.444C312.46,355.841,430.992,344.552,430.992,237.307z"/>
	<path style="fill:#FFD311;" d="M256.015,226.018v186.267c-338.667,0-231.422-287.866-231.422-287.866
		c16.369,22.916,91.44,53.397,151.835,74.845c6.661,2.483,13.095,4.742,19.304,6.886
		C230.276,218.117,256.015,226.018,256.015,226.018z M199.571,355.841v-56.444v-28.222L81.036,237.307
		C81.036,344.552,199.571,355.841,199.571,355.841z"/>
</g>
<g>
	<path style="fill:#FABB1B;" d="M199.571,355.841c0,0-118.533-11.289-118.533-118.533l31.471,8.991
		c-14.485-26.243-25.155-54.886-31.236-85.21c-27.07-12.742-48.764-25.59-56.68-36.671c0,0-107.245,287.866,231.422,287.866v-35.697
		c-20.056-8.654-38.949-19.462-56.444-32.092V355.841z"/>
	<path style="fill:#FABB1B;" d="M312.46,355.841c0,0,118.533-11.289,118.533-118.533l-31.471,8.991
		c14.485-26.243,25.155-54.886,31.236-85.21c27.07-12.742,48.764-25.59,56.68-36.671c0,0,107.245,287.866-231.422,287.866v-35.697
		c20.056-8.654,38.949-19.462,56.444-32.092L312.46,355.841L312.46,355.841z"/>
</g>
<path d="M439.474,237.307v-11.244l-135.495,38.713v100.391l9.285-0.884c1.281-0.121,31.727-3.181,62.536-20.053
	C417.455,321.419,439.474,284.445,439.474,237.307z M368.104,329.103c-18.115,10.01-36.493,14.733-47.164,16.816v-38.041h42.319
	v-16.963h-42.319v-13.344l101.077-28.879C418.879,284.032,400.782,311.048,368.104,329.103z"/>
<path d="M509.564,183.065c-4.567-35.54-13.789-60.56-14.18-61.607l-5.573-14.958l-9.276,12.988
	c-11.22,15.707-60.923,40.298-137.018,67.918V92.654l-53.753,53.752l-33.751-55.175l-33.751,55.175L168.51,92.654v94.751
	c-18.218-6.612-35.132-13.12-50.368-19.394l-6.458,15.686c18.439,7.591,39.246,15.511,61.843,23.536
	c7.045,2.627,13.778,4.978,19.429,6.93c24.606,8.523,44.951,15.053,54.577,18.09v171.481
	c-98.016-1.446-165.768-28.144-201.437-79.429c-29-41.695-31.236-92.721-28.006-128.185c2.144-23.537,6.913-43.565,10.388-55.83
	c13.421,10.863,35.949,23.097,68.183,37.065l6.745-15.565c-52.543-22.768-67.608-36.276-71.913-42.302l-9.276-12.988l-5.573,14.958
	c-0.47,1.264-11.579,31.437-15.399,72.621c-5.108,55.052,5.567,103.404,30.868,139.83c38.98,56.119,111.439,85.29,215.419,86.786
	v0.072h8.481c43.7,0,82.474-4.808,115.247-14.293l-4.716-16.293c-29.126,8.427-63.422,12.982-102.05,13.56V232.254
	c9.627-3.039,29.972-9.566,54.571-18.088c5.664-1.955,12.398-4.31,19.435-6.931c73.704-26.179,122.325-48.639,145.022-66.96
	c8.116,28.844,23.353,100.775-4.733,161.544c-17.735,38.37-49.984,66.303-95.855,83.024l5.809,15.938
	c50.307-18.339,85.799-49.272,105.488-91.943C514.594,264.71,513.808,216.085,509.564,183.065z M326.555,193.546
	c-2.256,0.814-4.459,1.598-6.572,2.34l-21.117-34.59l27.69-27.691L326.555,193.546L326.555,193.546z M213.164,161.297
	l-21.107,34.593c-2.116-0.743-4.322-1.528-6.584-2.344v-59.941L213.164,161.297z M256.014,217.138
	c-6.351-1.983-24.346-7.673-47.555-15.583l22.955-37.601l24.6-40.215l24.595,40.206l22.95,37.614
	C280.368,209.462,262.366,215.153,256.014,217.138z"/>
<path d="M72.555,237.307c0,47.138,22.018,84.111,63.675,106.923c30.81,16.872,61.255,19.932,62.536,20.053l9.285,0.884V264.776
	L72.555,226.063V237.307z M191.089,277.571v13.344H148.77v16.963h42.319v38.04c-10.673-2.083-29.051-6.806-47.164-16.814
	c-32.678-18.055-50.774-45.069-53.914-80.41L191.089,277.571z"/>
<g>
	<rect x="35.882" y="189.312" style="fill:#FFFFFF;" width="28.222" height="16.963"/>
	<rect x="442.282" y="189.312" style="fill:#FFFFFF;" width="28.222" height="16.963"/>
</g>
<rect x="239.082" y="178.027" width="33.867" height="16.963"/>
</svg>